<?xml version="1.0" encoding="UTF-8" standalone="no"?>
<svg xmlns:svg="http://www.w3.org/2000/svg" xmlns="http://www.w3.org/2000/svg"
version="1.0" width="800" height="800" id="graph">
<g style="stroke:#404040;stroke-width:3;stroke-linejoin:round;fill:none">
<line x1="328.69" y1="494.50" x2="287.51" y2="487.25"/>
<line x1="225.96" y1="499.47" x2="287.51" y2="487.25"/>
<line x1="377.65" y1="245.86" x2="412.48" y2="316.65"/>
<line x1="334.65" y1="704.55" x2="308.91" y2="672.84"/>
<line x1="471.14" y1="429.45" x2="440.82" y2="464.01"/>
<line x1="515.54" y1="679.35" x2="482.53" y2="713.75"/>
<line x1="509.96" y1="196.41" x2="451.93" y2="226.95"/>
<line x1="116.98" y1="401.19" x2=" 86.80" y2="446.78"/>
<line x1="434.15" y1="716.19" x2="482.53" y2="713.75"/>
<line x1="434.15" y1="716.19" x2="391.68" y2="767.00"/>
<line x1="393.52" y1="443.91" x2="440.82" y2="464.01"/>
<line x1="313.16" y1="612.15" x2="308.91" y2="672.84"/>
<line x1="385.28" y1="503.74" x2="328.69" y2="494.50"/>
<line x1="385.28" y1="503.74" x2="393.52" y2="443.91"/>
<line x1="166.76" y1="354.06" x2="116.98" y2="401.19"/>
<line x1=" 59.66" y1="406.92" x2=" 86.80" y2="446.78"/>
<line x1="121.77" y1="330.95" x2="166.76" y2="354.06"/>
<line x1="432.21" y1="356.49" x2="412.48" y2="316.65"/>
<line x1="339.53" y1="452.53" x2="328.69" y2="494.50"/>
<line x1="520.70" y1="433.25" x2="471.14" y2="429.45"/>
<line x1="610.38" y1="657.24" x2="556.10" y2="649.91"/>
<line x1="231.77" y1="229.92" x2="268.80" y2="197.59"/>
<line x1="413.96" y1="197.67" x2="377.65" y2="245.86"/>
<line x1="413.96" y1="197.67" x2="451.93" y2="226.95"/>
<line x1="456.80" y1="658.51" x2="482.53" y2="713.75"/>
<line x1="306.53" y1="225.17" x2="377.65" y2="245.86"/>
<line x1="306.53" y1="225.17" x2="268.80" y2="197.59"/>
<line x1="154.28" y1="257.57" x2="147.46" y2="209.92"/>
<line x1="713.54" y1="229.98" x2="674.35" y2="288.63"/>
<line x1="393.22" y1="692.44" x2="334.65" y2="704.55"/>
<line x1="393.22" y1="692.44" x2="434.15" y2="716.19"/>
<line x1="261.13" y1="622.27" x2="192.97" y2="625.09"/>
<line x1="261.13" y1="622.27" x2="313.16" y2="612.15"/>
<line x1="645.97" y1="517.36" x2="676.26" y2="482.62"/>
<line x1="645.97" y1="517.36" x2="627.70" y2="558.86"/>
<line x1="297.28" y1="382.09" x2="248.04" y2="318.13"/>
<line x1="468.17" y1="517.38" x2="496.63" y2="478.26"/>
<line x1="218.90" y1="413.02" x2="166.76" y2="354.06"/>
<line x1="253.49" y1="563.77" x2="225.96" y2="499.47"/>
<line x1="253.49" y1="563.77" x2="261.13" y2="622.27"/>
<line x1="356.52" y1="415.62" x2="393.52" y2="443.91"/>
<line x1="356.52" y1="415.62" x2="339.53" y2="452.53"/>
<line x1="356.52" y1="415.62" x2="297.28" y2="382.09"/>
<line x1="191.57" y1="524.62" x2="225.96" y2="499.47"/>
<line x1="191.57" y1="524.62" x2="163.75" y2="481.37"/>
<line x1="536.92" y1="605.34" x2="556.10" y2="649.91"/>
<line x1="460.80" y1="102.05" x2="497.70" y2=" 69.38"/>
<line x1="460.80" y1="102.05" x2="420.62" y2=" 75.61"/>
<line x1="314.53" y1="291.29" x2="348.55" y2="319.78"/>
<line x1="314.53" y1="291.29" x2="248.04" y2="318.13"/>
<line x1="314.53" y1="291.29" x2="306.53" y2="225.17"/>
<line x1="468.15" y1="266.32" x2="412.48" y2="316.65"/>
<line x1="468.15" y1="266.32" x2="451.93" y2="226.95"/>
<line x1="450.59" y1="159.67" x2="413.96" y2="197.67"/>
<line x1="450.59" y1="159.67" x2="410.95" y2="141.55"/>
<line x1="450.59" y1="159.67" x2="460.80" y2="102.05"/>
<line x1="622.30" y1="354.79" x2="577.82" y2="338.32"/>
<line x1="622.30" y1="354.79" x2="659.82" y2="425.21"/>
<line x1="113.60" y1="508.36" x2=" 86.80" y2="446.78"/>
<line x1="113.60" y1="508.36" x2="163.75" y2="481.37"/>
<line x1="558.04" y1="689.91" x2="556.10" y2="649.91"/>
<line x1="558.04" y1="689.91" x2="515.54" y2="679.35"/>
<line x1=" 89.72" y1="293.44" x2="121.77" y2="330.95"/>
<line x1="193.94" y1="282.51" x2="154.28" y2="257.57"/>
<line x1="435.36" y1="576.72" x2="409.49" y2="610.90"/>
<line x1="165.80" y1="161.69" x2="147.46" y2="209.92"/>
<line x1="141.29" y1="295.75" x2="121.77" y2="330.95"/>
<line x1="141.29" y1="295.75" x2="154.28" y2="257.57"/>
<line x1="766.45" y1="391.85" x2="725.44" y2="372.20"/>
<line x1=" 91.29" y1="200.34" x2="147.46" y2="209.92"/>
<line x1="646.47" y1="190.84" x2="611.15" y2="221.11"/>
<line x1="646.47" y1="190.84" x2="713.54" y2="229.98"/>
<line x1="544.05" y1="476.09" x2="496.63" y2="478.26"/>
<line x1="544.05" y1="476.09" x2="520.70" y2="433.25"/>
<line x1="460.86" y1="615.00" x2="456.80" y2="658.51"/>
<line x1="460.86" y1="615.00" x2="435.36" y2="576.72"/>
<line x1="482.59" y1="390.19" x2="502.73" y2="350.96"/>
<line x1="482.59" y1="390.19" x2="471.14" y2="429.45"/>
<line x1="482.59" y1="390.19" x2="432.21" y2="356.49"/>
<line x1="666.97" y1="646.48" x2="610.38" y2="657.24"/>
<line x1="291.90" y1=" 78.64" x2="307.24" y2="137.30"/>
<line x1="291.90" y1=" 78.64" x2="343.03" y2=" 59.23"/>
<line x1="291.90" y1=" 78.64" x2="228.44" y2="112.51"/>
<line x1="651.03" y1="599.38" x2="627.70" y2="558.86"/>
<line x1="651.03" y1="599.38" x2="666.97" y2="646.48"/>
<line x1="134.57" y1="644.84" x2="192.97" y2="625.09"/>
<line x1="134.57" y1="644.84" x2=" 91.30" y2="596.26"/>
<line x1="552.97" y1="407.74" x2="520.70" y2="433.25"/>
<line x1="766.07" y1="435.94" x2="766.45" y2="391.85"/>
<line x1="623.60" y1="482.24" x2="645.97" y2="517.36"/>
<line x1="480.62" y1="556.33" x2="468.17" y2="517.38"/>
<line x1="480.62" y1="556.33" x2="536.92" y2="605.34"/>
<line x1="480.62" y1="556.33" x2="435.36" y2="576.72"/>
<line x1="371.94" y1="365.24" x2="348.55" y2="319.78"/>
<line x1="371.94" y1="365.24" x2="432.21" y2="356.49"/>
<line x1="371.94" y1="365.24" x2="356.52" y2="415.62"/>
<line x1="107.61" y1="556.42" x2=" 91.30" y2="596.26"/>
<line x1="107.61" y1="556.42" x2="113.60" y2="508.36"/>
<line x1="348.66" y1="577.63" x2="409.49" y2="610.90"/>
<line x1="348.66" y1="577.63" x2="313.16" y2="612.15"/>
<line x1=" 55.81" y1="326.16" x2=" 59.66" y2="406.92"/>
<line x1=" 55.81" y1="326.16" x2=" 89.72" y2="293.44"/>
<line x1="312.56" y1="533.96" x2="328.69" y2="494.50"/>
<line x1="312.56" y1="533.96" x2="253.49" y2="563.77"/>
<line x1="312.56" y1="533.96" x2="348.66" y2="577.63"/>
<line x1="334.77" y1="750.90" x2="334.65" y2="704.55"/>
<line x1="334.77" y1="750.90" x2="391.68" y2="767.00"/>
<line x1=" 48.88" y1="473.43" x2=" 86.80" y2="446.78"/>
<line x1="629.87" y1="286.50" x2="611.15" y2="221.11"/>
<line x1="629.87" y1="286.50" x2="674.35" y2="288.63"/>
<line x1="629.87" y1="286.50" x2="622.30" y2="354.79"/>
<line x1="708.48" y1="453.95" x2="676.26" y2="482.62"/>
<line x1="708.48" y1="453.95" x2="766.07" y2="435.94"/>
<line x1="526.41" y1="291.05" x2="502.73" y2="350.96"/>
<line x1="526.41" y1="291.05" x2="577.82" y2="338.32"/>
<line x1="526.41" y1="291.05" x2="468.15" y2="266.32"/>
<line x1="542.32" y1="363.55" x2="502.73" y2="350.96"/>
<line x1="542.32" y1="363.55" x2="577.82" y2="338.32"/>
<line x1="542.32" y1="363.55" x2="552.97" y2="407.74"/>
<line x1="662.52" y1="153.54" x2="646.47" y2="190.84"/>
<line x1="662.52" y1="153.54" x2="621.78" y2="131.43"/>
<line x1="382.15" y1=" 95.64" x2="420.62" y2=" 75.61"/>
<line x1="382.15" y1=" 95.64" x2="307.24" y2="137.30"/>
<line x1="382.15" y1=" 95.64" x2="410.95" y2="141.55"/>
<line x1="699.54" y1="604.83" x2="651.03" y2="599.38"/>
<line x1="746.27" y1="322.38" x2="725.44" y2="372.20"/>
<line x1="562.65" y1="209.63" x2="611.15" y2="221.11"/>
<line x1="562.65" y1="209.63" x2="509.96" y2="196.41"/>
<line x1="562.65" y1="209.63" x2="526.41" y2="291.05"/>
<line x1="505.51" y1="155.31" x2="509.96" y2="196.41"/>
<line x1="505.51" y1="155.31" x2="450.59" y2="159.67"/>
<line x1="505.51" y1="155.31" x2="552.08" y2="132.01"/>
<line x1="555.08" y1="565.90" x2="536.92" y2="605.34"/>
<line x1="692.24" y1="330.29" x2="725.44" y2="372.20"/>
<line x1="692.24" y1="330.29" x2="674.35" y2="288.63"/>
<line x1="692.24" y1="330.29" x2="622.30" y2="354.79"/>
<line x1="289.62" y1="712.66" x2="308.91" y2="672.84"/>
<line x1="289.62" y1="712.66" x2="242.09" y2="712.67"/>
<line x1="182.94" y1="108.32" x2="228.44" y2="112.51"/>
<line x1="182.94" y1="108.32" x2="165.80" y2="161.69"/>
<line x1="274.25" y1="446.94" x2="287.51" y2="487.25"/>
<line x1="274.25" y1="446.94" x2="297.28" y2="382.09"/>
<line x1="274.25" y1="446.94" x2="218.90" y2="413.02"/>
<line x1="551.09" y1=" 67.63" x2="497.70" y2=" 69.38"/>
<line x1="526.79" y1="526.06" x2="544.05" y2="476.09"/>
<line x1="526.79" y1="526.06" x2="480.62" y2="556.33"/>
<line x1="526.79" y1="526.06" x2="555.08" y2="565.90"/>
<line x1="698.73" y1="411.73" x2="725.44" y2="372.20"/>
<line x1="698.73" y1="411.73" x2="659.82" y2="425.21"/>
<line x1="698.73" y1="411.73" x2="708.48" y2="453.95"/>
<line x1="235.67" y1="277.74" x2="248.04" y2="318.13"/>
<line x1="235.67" y1="277.74" x2="231.77" y2="229.92"/>
<line x1="235.67" y1="277.74" x2="193.94" y2="282.51"/>
<line x1="586.36" y1="604.30" x2="627.70" y2="558.86"/>
<line x1="586.36" y1="604.30" x2="536.92" y2="605.34"/>
<line x1="330.16" y1="171.67" x2="307.24" y2="137.30"/>
<line x1="330.16" y1="171.67" x2="306.53" y2="225.17"/>
<line x1="330.16" y1="171.67" x2="410.95" y2="141.55"/>
<line x1="163.19" y1="438.03" x2="116.98" y2="401.19"/>
<line x1="163.19" y1="438.03" x2="218.90" y2="413.02"/>
<line x1="163.19" y1="438.03" x2="163.75" y2="481.37"/>
<line x1="589.32" y1="446.69" x2="544.05" y2="476.09"/>
<line x1="589.32" y1="446.69" x2="552.97" y2="407.74"/>
<line x1="589.32" y1="446.69" x2="623.60" y2="482.24"/>
<line x1="381.83" y1=" 43.45" x2="420.62" y2=" 75.61"/>
<line x1="381.83" y1=" 43.45" x2="343.03" y2=" 59.23"/>
<line x1="594.71" y1="101.50" x2="552.08" y2="132.01"/>
<line x1="594.71" y1="101.50" x2="621.78" y2="131.43"/>
<line x1="594.71" y1="101.50" x2="551.09" y2=" 67.63"/>
</g><g style="stroke:#00FFFF;stroke-width:1;stroke-linejoin:round;fill:none">
<line x1="420.62" y1=" 75.61" x2="497.70" y2=" 69.38"/>
<line x1="348.55" y1="319.78" x2="412.48" y2="316.65"/>
<line x1="348.55" y1="319.78" x2="377.65" y2="245.86"/>
<line x1="268.80" y1="197.59" x2="307.24" y2="137.30"/>
<line x1="451.93" y1="226.95" x2="377.65" y2="245.86"/>
<line x1="515.54" y1="679.35" x2="556.10" y2="649.91"/>
<line x1="391.68" y1="767.00" x2="482.53" y2="713.75"/>
<line x1="393.52" y1="443.91" x2="471.14" y2="429.45"/>
<line x1="674.35" y1="288.63" x2="611.15" y2="221.11"/>
<line x1="313.16" y1="612.15" x2="409.49" y2="610.90"/>
<line x1="385.28" y1="503.74" x2="440.82" y2="464.01"/>
<line x1="496.63" y1="478.26" x2="440.82" y2="464.01"/>
<line x1="496.63" y1="478.26" x2="471.14" y2="429.45"/>
<line x1="343.03" y1=" 59.23" x2="307.24" y2="137.30"/>
<line x1="166.76" y1="354.06" x2="248.04" y2="318.13"/>
<line x1=" 59.66" y1="406.92" x2="116.98" y2="401.19"/>
<line x1="121.77" y1="330.95" x2="116.98" y2="401.19"/>
<line x1="432.21" y1="356.49" x2="502.73" y2="350.96"/>
<line x1="432.21" y1="356.49" x2="471.14" y2="429.45"/>
<line x1="432.21" y1="356.49" x2="393.52" y2="443.91"/>
<line x1="339.53" y1="452.53" x2="287.51" y2="487.25"/>
<line x1="339.53" y1="452.53" x2="393.52" y2="443.91"/>
<line x1="339.53" y1="452.53" x2="385.28" y2="503.74"/>
<line x1="520.70" y1="433.25" x2="496.63" y2="478.26"/>
<line x1="231.77" y1="229.92" x2="147.46" y2="209.92"/>
<line x1="456.80" y1="658.51" x2="409.49" y2="610.90"/>
<line x1="456.80" y1="658.51" x2="515.54" y2="679.35"/>
<line x1="456.80" y1="658.51" x2="434.15" y2="716.19"/>
<line x1="306.53" y1="225.17" x2="231.77" y2="229.92"/>
<line x1="410.95" y1="141.55" x2="420.62" y2=" 75.61"/>
<line x1="410.95" y1="141.55" x2="413.96" y2="197.67"/>
<line x1="676.26" y1="482.62" x2="659.82" y2="425.21"/>
<line x1="154.28" y1="257.57" x2="231.77" y2="229.92"/>
<line x1="393.22" y1="692.44" x2="409.49" y2="610.90"/>
<line x1="393.22" y1="692.44" x2="308.91" y2="672.84"/>
<line x1="393.22" y1="692.44" x2="391.68" y2="767.00"/>
<line x1="393.22" y1="692.44" x2="313.16" y2="612.15"/>
<line x1="393.22" y1="692.44" x2="456.80" y2="658.51"/>
<line x1="261.13" y1="622.27" x2="308.91" y2="672.84"/>
<line x1="297.28" y1="382.09" x2="348.55" y2="319.78"/>
<line x1="297.28" y1="382.09" x2="339.53" y2="452.53"/>
<line x1="468.17" y1="517.38" x2="440.82" y2="464.01"/>
<line x1="468.17" y1="517.38" x2="385.28" y2="503.74"/>
<line x1="218.90" y1="413.02" x2="225.96" y2="499.47"/>
<line x1="218.90" y1="413.02" x2="248.04" y2="318.13"/>
<line x1="218.90" y1="413.02" x2="297.28" y2="382.09"/>
<line x1="253.49" y1="563.77" x2="287.51" y2="487.25"/>
<line x1="253.49" y1="563.77" x2="192.97" y2="625.09"/>
<line x1="253.49" y1="563.77" x2="313.16" y2="612.15"/>
<line x1="163.75" y1="481.37" x2="225.96" y2="499.47"/>
<line x1="163.75" y1="481.37" x2=" 86.80" y2="446.78"/>
<line x1="191.57" y1="524.62" x2="192.97" y2="625.09"/>
<line x1="191.57" y1="524.62" x2="253.49" y2="563.77"/>
<line x1="536.92" y1="605.34" x2="515.54" y2="679.35"/>
<line x1="460.80" y1="102.05" x2="410.95" y2="141.55"/>
<line x1="228.44" y1="112.51" x2="307.24" y2="137.30"/>
<line x1="228.44" y1="112.51" x2="268.80" y2="197.59"/>
<line x1="314.53" y1="291.29" x2="377.65" y2="245.86"/>
<line x1="314.53" y1="291.29" x2="297.28" y2="382.09"/>
<line x1="468.15" y1="266.32" x2="377.65" y2="245.86"/>
<line x1="468.15" y1="266.32" x2="502.73" y2="350.96"/>
<line x1="468.15" y1="266.32" x2="509.96" y2="196.41"/>
<line x1="468.15" y1="266.32" x2="432.21" y2="356.49"/>
<line x1="450.59" y1="159.67" x2="451.93" y2="226.95"/>
<line x1="450.59" y1="159.67" x2="509.96" y2="196.41"/>
<line x1="622.30" y1="354.79" x2="674.35" y2="288.63"/>
<line x1="113.60" y1="508.36" x2="191.57" y2="524.62"/>
<line x1="558.04" y1="689.91" x2="482.53" y2="713.75"/>
<line x1="558.04" y1="689.91" x2="391.68" y2="767.00"/>
<line x1="558.04" y1="689.91" x2="610.38" y2="657.24"/>
<line x1=" 89.72" y1="293.44" x2="154.28" y2="257.57"/>
<line x1="193.94" y1="282.51" x2="248.04" y2="318.13"/>
<line x1="193.94" y1="282.51" x2="166.76" y2="354.06"/>
<line x1="193.94" y1="282.51" x2="231.77" y2="229.92"/>
<line x1="435.36" y1="576.72" x2="385.28" y2="503.74"/>
<line x1="435.36" y1="576.72" x2="468.17" y2="517.38"/>
<line x1="165.80" y1="161.69" x2="268.80" y2="197.59"/>
<line x1="165.80" y1="161.69" x2="231.77" y2="229.92"/>
<line x1="165.80" y1="161.69" x2="228.44" y2="112.51"/>
<line x1="141.29" y1="295.75" x2="166.76" y2="354.06"/>
<line x1="141.29" y1="295.75" x2=" 89.72" y2="293.44"/>
<line x1="141.29" y1="295.75" x2="193.94" y2="282.51"/>
<line x1=" 91.29" y1="200.34" x2="154.28" y2="257.57"/>
<line x1=" 91.29" y1="200.34" x2=" 89.72" y2="293.44"/>
<line x1=" 91.29" y1="200.34" x2="165.80" y2="161.69"/>
<line x1="646.47" y1="190.84" x2="674.35" y2="288.63"/>
<line x1="460.86" y1="615.00" x2="409.49" y2="610.90"/>
<line x1="460.86" y1="615.00" x2="515.54" y2="679.35"/>
<line x1="460.86" y1="615.00" x2="536.92" y2="605.34"/>
<line x1="482.59" y1="390.19" x2="520.70" y2="433.25"/>
<line x1="666.97" y1="646.48" x2="391.68" y2="767.00"/>
<line x1="666.97" y1="646.48" x2="558.04" y2="689.91"/>
<line x1="242.09" y1="712.67" x2="192.97" y2="625.09"/>
<line x1="242.09" y1="712.67" x2="308.91" y2="672.84"/>
<line x1="242.09" y1="712.67" x2="261.13" y2="622.27"/>
<line x1="651.03" y1="599.38" x2="610.38" y2="657.24"/>
<line x1="651.03" y1="599.38" x2="645.97" y2="517.36"/>
<line x1="134.57" y1="644.84" x2="242.09" y2="712.67"/>
<line x1="552.97" y1="407.74" x2="577.82" y2="338.32"/>
<line x1="552.97" y1="407.74" x2="622.30" y2="354.79"/>
<line x1="552.97" y1="407.74" x2="544.05" y2="476.09"/>
<line x1="552.97" y1="407.74" x2="482.59" y2="390.19"/>
<line x1="623.60" y1="482.24" x2="659.82" y2="425.21"/>
<line x1="623.60" y1="482.24" x2="676.26" y2="482.62"/>
<line x1="623.60" y1="482.24" x2="627.70" y2="558.86"/>
<line x1="623.60" y1="482.24" x2="544.05" y2="476.09"/>
<line x1="480.62" y1="556.33" x2="460.86" y2="615.00"/>
<line x1="371.94" y1="365.24" x2="412.48" y2="316.65"/>
<line x1="371.94" y1="365.24" x2="393.52" y2="443.91"/>
<line x1="371.94" y1="365.24" x2="297.28" y2="382.09"/>
<line x1="107.61" y1="556.42" x2="192.97" y2="625.09"/>
<line x1="107.61" y1="556.42" x2="191.57" y2="524.62"/>
<line x1="107.61" y1="556.42" x2="134.57" y2="644.84"/>
<line x1="348.66" y1="577.63" x2="385.28" y2="503.74"/>
<line x1="348.66" y1="577.63" x2="435.36" y2="576.72"/>
<line x1=" 55.81" y1="326.16" x2="116.98" y2="401.19"/>
<line x1=" 55.81" y1="326.16" x2="121.77" y2="330.95"/>
<line x1=" 55.81" y1="326.16" x2=" 91.29" y2="200.34"/>
<line x1="552.08" y1="132.01" x2="497.70" y2=" 69.38"/>
<line x1="552.08" y1="132.01" x2="509.96" y2="196.41"/>
<line x1="312.56" y1="533.96" x2="287.51" y2="487.25"/>
<line x1="312.56" y1="533.96" x2="313.16" y2="612.15"/>
<line x1="312.56" y1="533.96" x2="385.28" y2="503.74"/>
<line x1="334.77" y1="750.90" x2="393.22" y2="692.44"/>
<line x1="334.77" y1="750.90" x2="242.09" y2="712.67"/>
<line x1=" 48.88" y1="473.43" x2=" 59.66" y2="406.92"/>
<line x1=" 48.88" y1="473.43" x2=" 91.30" y2="596.26"/>
<line x1=" 48.88" y1="473.43" x2="113.60" y2="508.36"/>
<line x1=" 48.88" y1="473.43" x2="107.61" y2="556.42"/>
<line x1=" 48.88" y1="473.43" x2=" 55.81" y2="326.16"/>
<line x1="629.87" y1="286.50" x2="577.82" y2="338.32"/>
<line x1="708.48" y1="453.95" x2="659.82" y2="425.21"/>
<line x1="526.41" y1="291.05" x2="611.15" y2="221.11"/>
<line x1="526.41" y1="291.05" x2="509.96" y2="196.41"/>
<line x1="526.41" y1="291.05" x2="629.87" y2="286.50"/>
<line x1="542.32" y1="363.55" x2="482.59" y2="390.19"/>
<line x1="542.32" y1="363.55" x2="526.41" y2="291.05"/>
<line x1="621.78" y1="131.43" x2="611.15" y2="221.11"/>
<line x1="621.78" y1="131.43" x2="646.47" y2="190.84"/>
<line x1="621.78" y1="131.43" x2="552.08" y2="132.01"/>
<line x1="662.52" y1="153.54" x2="713.54" y2="229.98"/>
<line x1="382.15" y1=" 95.64" x2="343.03" y2=" 59.23"/>
<line x1="699.54" y1="604.83" x2="676.26" y2="482.62"/>
<line x1="699.54" y1="604.83" x2="645.97" y2="517.36"/>
<line x1="699.54" y1="604.83" x2="666.97" y2="646.48"/>
<line x1="699.54" y1="604.83" x2="766.07" y2="435.94"/>
<line x1="699.54" y1="604.83" x2="708.48" y2="453.95"/>
<line x1="746.27" y1="322.38" x2="674.35" y2="288.63"/>
<line x1="746.27" y1="322.38" x2="713.54" y2="229.98"/>
<line x1="746.27" y1="322.38" x2="766.45" y2="391.85"/>
<line x1="562.65" y1="209.63" x2="552.08" y2="132.01"/>
<line x1="562.65" y1="209.63" x2="621.78" y2="131.43"/>
<line x1="505.51" y1="155.31" x2="497.70" y2=" 69.38"/>
<line x1="505.51" y1="155.31" x2="460.80" y2="102.05"/>
<line x1="555.08" y1="565.90" x2="627.70" y2="558.86"/>
<line x1="555.08" y1="565.90" x2="623.60" y2="482.24"/>
<line x1="555.08" y1="565.90" x2="480.62" y2="556.33"/>
<line x1="692.24" y1="330.29" x2="746.27" y2="322.38"/>
<line x1="289.62" y1="712.66" x2="334.65" y2="704.55"/>
<line x1="289.62" y1="712.66" x2="334.77" y2="750.90"/>
<line x1="182.94" y1="108.32" x2="343.03" y2=" 59.23"/>
<line x1="182.94" y1="108.32" x2=" 91.29" y2="200.34"/>
<line x1="182.94" y1="108.32" x2="291.90" y2=" 78.64"/>
<line x1="274.25" y1="446.94" x2="225.96" y2="499.47"/>
<line x1="274.25" y1="446.94" x2="339.53" y2="452.53"/>
<line x1="551.09" y1=" 67.63" x2="552.08" y2="132.01"/>
<line x1="551.09" y1=" 67.63" x2="662.52" y2="153.54"/>
<line x1="526.79" y1="526.06" x2="496.63" y2="478.26"/>
<line x1="526.79" y1="526.06" x2="468.17" y2="517.38"/>
<line x1="526.79" y1="526.06" x2="623.60" y2="482.24"/>
<line x1="698.73" y1="411.73" x2="622.30" y2="354.79"/>
<line x1="698.73" y1="411.73" x2="766.45" y2="391.85"/>
<line x1="698.73" y1="411.73" x2="766.07" y2="435.94"/>
<line x1="698.73" y1="411.73" x2="692.24" y2="330.29"/>
<line x1="235.67" y1="277.74" x2="306.53" y2="225.17"/>
<line x1="235.67" y1="277.74" x2="314.53" y2="291.29"/>
<line x1="586.36" y1="604.30" x2="556.10" y2="649.91"/>
<line x1="586.36" y1="604.30" x2="610.38" y2="657.24"/>
<line x1="586.36" y1="604.30" x2="651.03" y2="599.38"/>
<line x1="586.36" y1="604.30" x2="555.08" y2="565.90"/>
<line x1="330.16" y1="171.67" x2="377.65" y2="245.86"/>
<line x1="330.16" y1="171.67" x2="268.80" y2="197.59"/>
<line x1="330.16" y1="171.67" x2="413.96" y2="197.67"/>
<line x1="330.16" y1="171.67" x2="382.15" y2=" 95.64"/>
<line x1="163.19" y1="438.03" x2="225.96" y2="499.47"/>
<line x1="163.19" y1="438.03" x2=" 86.80" y2="446.78"/>
<line x1="163.19" y1="438.03" x2="166.76" y2="354.06"/>
<line x1="589.32" y1="446.69" x2="659.82" y2="425.21"/>
<line x1="589.32" y1="446.69" x2="622.30" y2="354.79"/>
<line x1="381.83" y1=" 43.45" x2="497.70" y2=" 69.38"/>
<line x1="381.83" y1=" 43.45" x2="382.15" y2=" 95.64"/>
<line x1="381.83" y1=" 43.45" x2="182.94" y2="108.32"/>
<line x1="381.83" y1=" 43.45" x2="551.09" y2=" 67.63"/>
<line x1="594.71" y1="101.50" x2="662.52" y2="153.54"/>
</g><g style="stroke:#000000;stroke-width:2;stroke-linejoin:round;fill:#C0C0C0">
<circle cx="440.82" cy="464.01" r="  8.00"/>
<circle cx="497.70" cy=" 69.38" r="  8.00"/>
<circle cx="287.51" cy="487.25" r="  8.00"/>
<circle cx="482.53" cy="713.75" r="  8.00"/>
<circle cx="409.49" cy="610.90" r="  8.00"/>
<circle cx="328.69" cy="494.50" r="  8.00"/>
<circle cx="192.97" cy="625.09" r="  8.00"/>
<circle cx="420.62" cy=" 75.61" r="  8.00"/>
<circle cx="225.96" cy="499.47" r="  8.00"/>
<circle cx="412.48" cy="316.65" r="  8.00"/>
<circle cx="307.24" cy="137.30" r="  8.00"/>
<circle cx="377.65" cy="245.86" r="  8.00"/>
<circle cx="348.55" cy="319.78" r="  8.00"/>
<circle cx="502.73" cy="350.96" r="  8.00"/>
<circle cx="248.04" cy="318.13" r="  8.00"/>
<circle cx="556.10" cy="649.91" r="  8.00"/>
<circle cx="308.91" cy="672.84" r="  8.00"/>
<circle cx="611.15" cy="221.11" r="  8.00"/>
<circle cx="268.80" cy="197.59" r="  8.00"/>
<circle cx="451.93" cy="226.95" r="  8.00"/>
<circle cx="147.46" cy="209.92" r="  8.00"/>
<circle cx="334.65" cy="704.55" r="  8.00"/>
<circle cx="471.14" cy="429.45" r="  8.00"/>
<circle cx="515.54" cy="679.35" r="  8.00"/>
<circle cx="509.96" cy="196.41" r="  8.00"/>
<circle cx="725.44" cy="372.20" r="  8.00"/>
<circle cx=" 86.80" cy="446.78" r="  8.00"/>
<circle cx="116.98" cy="401.19" r="  8.00"/>
<circle cx="391.68" cy="767.00" r="  8.00"/>
<circle cx="434.15" cy="716.19" r="  8.00"/>
<circle cx="577.82" cy="338.32" r="  8.00"/>
<circle cx="393.52" cy="443.91" r="  8.00"/>
<circle cx="674.35" cy="288.63" r="  8.00"/>
<circle cx="313.16" cy="612.15" r="  8.00"/>
<circle cx="385.28" cy="503.74" r="  8.00"/>
<circle cx="496.63" cy="478.26" r="  8.00"/>
<circle cx="343.03" cy=" 59.23" r="  8.00"/>
<circle cx="166.76" cy="354.06" r="  8.00"/>
<circle cx=" 59.66" cy="406.92" r="  8.00"/>
<circle cx="121.77" cy="330.95" r="  8.00"/>
<circle cx="432.21" cy="356.49" r="  8.00"/>
<circle cx="339.53" cy="452.53" r="  8.00"/>
<circle cx="520.70" cy="433.25" r="  8.00"/>
<circle cx="610.38" cy="657.24" r="  8.00"/>
<circle cx="659.82" cy="425.21" r="  8.00"/>
<circle cx="231.77" cy="229.92" r="  8.00"/>
<circle cx="413.96" cy="197.67" r="  8.00"/>
<circle cx="456.80" cy="658.51" r="  8.00"/>
<circle cx="306.53" cy="225.17" r="  8.00"/>
<circle cx="410.95" cy="141.55" r="  8.00"/>
<circle cx=" 91.30" cy="596.26" r="  8.00"/>
<circle cx="676.26" cy="482.62" r="  8.00"/>
<circle cx="154.28" cy="257.57" r="  8.00"/>
<circle cx="627.70" cy="558.86" r="  8.00"/>
<circle cx="713.54" cy="229.98" r="  8.00"/>
<circle cx="393.22" cy="692.44" r="  8.00"/>
<circle cx="261.13" cy="622.27" r="  8.00"/>
<circle cx="645.97" cy="517.36" r="  8.00"/>
<circle cx="297.28" cy="382.09" r="  8.00"/>
<circle cx="468.17" cy="517.38" r="  8.00"/>
<circle cx="218.90" cy="413.02" r="  8.00"/>
<circle cx="253.49" cy="563.77" r="  8.00"/>
<circle cx="163.75" cy="481.37" r="  8.00"/>
<circle cx="356.52" cy="415.62" r="  8.00"/>
<circle cx="191.57" cy="524.62" r="  8.00"/>
<circle cx="536.92" cy="605.34" r="  8.00"/>
<circle cx="460.80" cy="102.05" r="  8.00"/>
<circle cx="228.44" cy="112.51" r="  8.00"/>
<circle cx="314.53" cy="291.29" r="  8.00"/>
<circle cx="468.15" cy="266.32" r="  8.00"/>
<circle cx="450.59" cy="159.67" r="  8.00"/>
<circle cx="622.30" cy="354.79" r="  8.00"/>
<circle cx="113.60" cy="508.36" r="  8.00"/>
<circle cx="558.04" cy="689.91" r="  8.00"/>
<circle cx=" 89.72" cy="293.44" r="  8.00"/>
<circle cx="193.94" cy="282.51" r="  8.00"/>
<circle cx="435.36" cy="576.72" r="  8.00"/>
<circle cx="165.80" cy="161.69" r="  8.00"/>
<circle cx="141.29" cy="295.75" r="  8.00"/>
<circle cx="766.45" cy="391.85" r="  8.00"/>
<circle cx=" 91.29" cy="200.34" r="  8.00"/>
<circle cx="646.47" cy="190.84" r="  8.00"/>
<circle cx="544.05" cy="476.09" r="  8.00"/>
<circle cx="460.86" cy="615.00" r="  8.00"/>
<circle cx="482.59" cy="390.19" r="  8.00"/>
<circle cx="666.97" cy="646.48" r="  8.00"/>
<circle cx="242.09" cy="712.67" r="  8.00"/>
<circle cx="291.90" cy=" 78.64" r="  8.00"/>
<circle cx="651.03" cy="599.38" r="  8.00"/>
<circle cx="134.57" cy="644.84" r="  8.00"/>
<circle cx="552.97" cy="407.74" r="  8.00"/>
<circle cx="766.07" cy="435.94" r="  8.00"/>
<circle cx="623.60" cy="482.24" r="  8.00"/>
<circle cx="480.62" cy="556.33" r="  8.00"/>
<circle cx="371.94" cy="365.24" r="  8.00"/>
<circle cx="107.61" cy="556.42" r="  8.00"/>
<circle cx="348.66" cy="577.63" r="  8.00"/>
<circle cx=" 55.81" cy="326.16" r="  8.00"/>
<circle cx="552.08" cy="132.01" r="  8.00"/>
<circle cx="312.56" cy="533.96" r="  8.00"/>
<circle cx="334.77" cy="750.90" r="  8.00"/>
<circle cx=" 48.88" cy="473.43" r="  8.00"/>
<circle cx="629.87" cy="286.50" r="  8.00"/>
<circle cx="708.48" cy="453.95" r="  8.00"/>
<circle cx="526.41" cy="291.05" r="  8.00"/>
<circle cx="542.32" cy="363.55" r="  8.00"/>
<circle cx="621.78" cy="131.43" r="  8.00"/>
<circle cx="662.52" cy="153.54" r="  8.00"/>
<circle cx="382.15" cy=" 95.64" r="  8.00"/>
<circle cx="699.54" cy="604.83" r="  8.00"/>
<circle cx="746.27" cy="322.38" r="  8.00"/>
<circle cx="562.65" cy="209.63" r="  8.00"/>
<circle cx="505.51" cy="155.31" r="  8.00"/>
<circle cx="555.08" cy="565.90" r="  8.00"/>
<circle cx="692.24" cy="330.29" r="  8.00"/>
<circle cx="289.62" cy="712.66" r="  8.00"/>
<circle cx="182.94" cy="108.32" r="  8.00"/>
<circle cx="274.25" cy="446.94" r="  8.00"/>
<circle cx="551.09" cy=" 67.63" r="  8.00"/>
<circle cx="526.79" cy="526.06" r="  8.00"/>
<circle cx="698.73" cy="411.73" r="  8.00"/>
<circle cx="235.67" cy="277.74" r="  8.00"/>
<circle cx="586.36" cy="604.30" r="  8.00"/>
<circle cx="330.16" cy="171.67" r="  8.00"/>
<circle cx="163.19" cy="438.03" r="  8.00"/>
<circle cx="589.32" cy="446.69" r="  8.00"/>
<circle cx="381.83" cy=" 43.45" r="  8.00"/>
<circle cx="594.71" cy="101.50" r="  8.00"/>
</g></svg>